<?xml version="1.0" encoding="UTF-8" standalone="no"?>
<!-- Created with Inkscape (http://www.inkscape.org/) -->

<svg
   width="640.0px"
   height="224.0px"
   viewBox="0.0 0.0 640.0 224.0"
   version="1.1"
   id="svg1"
   xmlns="http://www.w3.org/2000/svg"
   xmlns:svg="http://www.w3.org/2000/svg">
  <defs
     id="defs1" />
  <g
     id="layer1" />
  <g
     id="VX-symbol-layer">
    <g
       id="VX-symbol-components">
      <path
         id="VX-v2-preserved-symbol-VX-V-descending.001"
         d="M94.60001,55.44000 L138.28000,55.44000 L202.12000,141.12000 L179.16000,168.56000 Z"
         style="fill:#D7FF3F;fill-rule:evenodd" />
      <path
         id="VX-v2-preserved-symbol-VX-X-descending.001"
         d="M190.36000,55.44000 L234.04001,55.44000 L321.40002,168.56000 L277.72000,168.56000 Z"
         style="fill:#D7FF3F;fill-rule:evenodd" />
      <path
         id="VX-v2-preserved-symbol-VX-X-upper-ascending.001"
         d="M283.32001,55.44000 L327.00000,55.44000 L283.32001,109.20000 L262.04001,81.20000 Z"
         style="fill:#D7FF3F;fill-rule:evenodd" />
      <path
         id="VX-v2-preserved-symbol-VX-V-return.001"
         d="M189.24001,168.56000 L229.00000,118.72000 L250.28000,146.16000 L230.68001,168.56000 Z"
         style="fill:#D7FF3F;fill-rule:evenodd" />
    </g>
  </g>
  <g
     id="VX-wordmark-layer">
    <g
       id="VX-wordmark-letterforms">
      <path
         id="VX-v2-bespoke-lowercase-v.002"
         d="M369.00000,71.50000 C369.00000,71.50000 381.14999,71.50000 381.14999,71.50000 C381.14999,71.50000 410.57999,138.01000 410.57999,138.01000 C411.66000,140.35000 413.63998,140.35000 414.72000,138.01000 C414.72000,138.01000 444.14999,71.50000 444.14999,71.50000 C444.14999,71.50000 456.29999,71.50000 456.29999,71.50000 C456.29999,71.50000 422.45999,148.35999 422.45999,148.35999 C419.31000,155.29001 405.98999,155.29001 402.84000,148.35999 C402.84000,148.35999 369.00000,71.50000 369.00000,71.50000 Z"
         style="fill:#F4F6F2;fill-rule:evenodd" />
      <path
         id="VX-v2-bespoke-lowercase-x.002"
         d="M468.00000,71.50000 C468.00000,71.50000 481.85999,71.50000 481.85999,71.50000 C481.85999,71.50000 506.70001,102.73000 506.70001,102.73000 C506.70001,102.73000 531.53998,71.50000 531.53998,71.50000 C531.53998,71.50000 545.40002,71.50000 545.40002,71.50000 C545.40002,71.50000 513.71997,111.46000 513.71997,111.46000 C513.71997,111.46000 547.02002,152.50000 547.02002,152.50000 C547.02002,152.50000 532.97998,152.50000 532.97998,152.50000 C532.97998,152.50000 506.70001,120.10000 506.70001,120.10000 C506.70001,120.10000 480.42001,152.50000 480.42001,152.50000 C480.42001,152.50000 466.38000,152.50000 466.38000,152.50000 C466.38000,152.50000 499.67999,111.46000 499.67999,111.46000 C499.67999,111.46000 468.00000,71.50000 468.00000,71.50000 Z"
         style="fill:#F4F6F2;fill-rule:evenodd" />
    </g>
  </g>
</svg>
